<mxfile host="app.diagrams.net" agent="Mozilla/5.0 (Windows NT 10.0; Win64; x64) AppleWebKit/537.36 (KHTML, like Gecko) Chrome/134.0.0.0 Safari/537.36 Edg/134.0.0.0" version="26.1.1">
  <diagram name="Página-1" id="ESuVd0K94sleFuh1XpkI">
    <mxGraphModel dx="3012" dy="751" grid="1" gridSize="10" guides="1" tooltips="1" connect="1" arrows="1" fold="1" page="1" pageScale="1" pageWidth="827" pageHeight="1169" math="0" shadow="0">
      <root>
        <mxCell id="0" />
        <mxCell id="1" parent="0" />
        <mxCell id="PIRWJuVdInkOJhS-QGG8-3" value="" style="edgeStyle=orthogonalEdgeStyle;rounded=0;orthogonalLoop=1;jettySize=auto;html=1;" edge="1" parent="1" source="PIRWJuVdInkOJhS-QGG8-1">
          <mxGeometry relative="1" as="geometry">
            <mxPoint x="-1293" y="229" as="targetPoint" />
          </mxGeometry>
        </mxCell>
        <mxCell id="PIRWJuVdInkOJhS-QGG8-1" value="" style="sketch=0;points=[[0,0,0],[0.25,0,0],[0.5,0,0],[0.75,0,0],[1,0,0],[0,1,0],[0.25,1,0],[0.5,1,0],[0.75,1,0],[1,1,0],[0,0.25,0],[0,0.5,0],[0,0.75,0],[1,0.25,0],[1,0.5,0],[1,0.75,0]];outlineConnect=0;fontColor=#232F3E;fillColor=#ED7100;strokeColor=#ffffff;dashed=0;verticalLabelPosition=bottom;verticalAlign=top;align=center;html=1;fontSize=12;fontStyle=0;aspect=fixed;shape=mxgraph.aws4.resourceIcon;resIcon=mxgraph.aws4.ec2;" vertex="1" parent="1">
          <mxGeometry x="-1450" y="190" width="78" height="78" as="geometry" />
        </mxCell>
        <mxCell id="PIRWJuVdInkOJhS-QGG8-5" value="" style="edgeStyle=orthogonalEdgeStyle;rounded=0;orthogonalLoop=1;jettySize=auto;html=1;" edge="1" parent="1">
          <mxGeometry relative="1" as="geometry">
            <mxPoint x="-1410.9523809523812" y="308" as="sourcePoint" />
            <mxPoint x="-1410.9523809523812" y="275" as="targetPoint" />
          </mxGeometry>
        </mxCell>
        <mxCell id="PIRWJuVdInkOJhS-QGG8-4" value="" style="shape=image;html=1;verticalAlign=top;verticalLabelPosition=bottom;labelBackgroundColor=#ffffff;imageAspect=0;aspect=fixed;image=https://cdn1.iconfinder.com/data/icons/operating-system-flat-1/30/ubuntu-128.png" vertex="1" parent="1">
          <mxGeometry x="-1466" y="301" width="110" height="110" as="geometry" />
        </mxCell>
        <mxCell id="PIRWJuVdInkOJhS-QGG8-8" value="" style="edgeStyle=orthogonalEdgeStyle;rounded=0;orthogonalLoop=1;jettySize=auto;html=1;" edge="1" parent="1" source="PIRWJuVdInkOJhS-QGG8-6">
          <mxGeometry relative="1" as="geometry">
            <mxPoint x="-1118.25" y="229" as="targetPoint" />
          </mxGeometry>
        </mxCell>
        <mxCell id="PIRWJuVdInkOJhS-QGG8-6" value="" style="outlineConnect=0;dashed=0;verticalLabelPosition=bottom;verticalAlign=top;align=center;html=1;shape=mxgraph.aws3.cloudwatch;fillColor=#759C3E;gradientColor=none;" vertex="1" parent="1">
          <mxGeometry x="-1282" y="182.5" width="82.5" height="93" as="geometry" />
        </mxCell>
        <mxCell id="PIRWJuVdInkOJhS-QGG8-9" value="" style="sketch=0;points=[[0,0,0],[0.25,0,0],[0.5,0,0],[0.75,0,0],[1,0,0],[0,1,0],[0.25,1,0],[0.5,1,0],[0.75,1,0],[1,1,0],[0,0.25,0],[0,0.5,0],[0,0.75,0],[1,0.25,0],[1,0.5,0],[1,0.75,0]];points=[[0,0,0],[0.25,0,0],[0.5,0,0],[0.75,0,0],[1,0,0],[0,1,0],[0.25,1,0],[0.5,1,0],[0.75,1,0],[1,1,0],[0,0.25,0],[0,0.5,0],[0,0.75,0],[1,0.25,0],[1,0.5,0],[1,0.75,0]];outlineConnect=0;fontColor=#232F3E;fillColor=#E7157B;strokeColor=#ffffff;dashed=0;verticalLabelPosition=bottom;verticalAlign=top;align=center;html=1;fontSize=12;fontStyle=0;aspect=fixed;shape=mxgraph.aws4.resourceIcon;resIcon=mxgraph.aws4.managed_service_for_grafana;" vertex="1" parent="1">
          <mxGeometry x="-1110" y="190" width="78" height="78" as="geometry" />
        </mxCell>
        <mxCell id="PIRWJuVdInkOJhS-QGG8-12" value="" style="edgeStyle=orthogonalEdgeStyle;rounded=0;orthogonalLoop=1;jettySize=auto;html=1;" edge="1" parent="1" source="PIRWJuVdInkOJhS-QGG8-10" target="PIRWJuVdInkOJhS-QGG8-11">
          <mxGeometry relative="1" as="geometry" />
        </mxCell>
        <mxCell id="PIRWJuVdInkOJhS-QGG8-10" value="" style="sketch=0;points=[[0,0,0],[0.25,0,0],[0.5,0,0],[0.75,0,0],[1,0,0],[0,1,0],[0.25,1,0],[0.5,1,0],[0.75,1,0],[1,1,0],[0,0.25,0],[0,0.5,0],[0,0.75,0],[1,0.25,0],[1,0.5,0],[1,0.75,0]];outlineConnect=0;fontColor=#232F3E;fillColor=#E7157B;strokeColor=#ffffff;dashed=0;verticalLabelPosition=bottom;verticalAlign=top;align=center;html=1;fontSize=12;fontStyle=0;aspect=fixed;shape=mxgraph.aws4.resourceIcon;resIcon=mxgraph.aws4.sns;" vertex="1" parent="1">
          <mxGeometry x="-1110" y="190" width="78" height="78" as="geometry" />
        </mxCell>
        <mxCell id="PIRWJuVdInkOJhS-QGG8-11" value="" style="sketch=0;outlineConnect=0;fontColor=#232F3E;gradientColor=none;fillColor=#E7157B;strokeColor=none;dashed=0;verticalLabelPosition=bottom;verticalAlign=top;align=center;html=1;fontSize=12;fontStyle=0;aspect=fixed;pointerEvents=1;shape=mxgraph.aws4.email_notification;" vertex="1" parent="1">
          <mxGeometry x="-970" y="190" width="78" height="78" as="geometry" />
        </mxCell>
        <mxCell id="PIRWJuVdInkOJhS-QGG8-13" value="Ubuntu" style="text;html=1;align=center;verticalAlign=middle;whiteSpace=wrap;rounded=0;" vertex="1" parent="1">
          <mxGeometry x="-1441" y="416" width="60" height="30" as="geometry" />
        </mxCell>
        <mxCell id="PIRWJuVdInkOJhS-QGG8-14" value="EC2" style="text;html=1;align=center;verticalAlign=middle;whiteSpace=wrap;rounded=0;" vertex="1" parent="1">
          <mxGeometry x="-1441" y="139" width="60" height="30" as="geometry" />
        </mxCell>
        <mxCell id="PIRWJuVdInkOJhS-QGG8-15" value="CloudWatch" style="text;html=1;align=center;verticalAlign=middle;whiteSpace=wrap;rounded=0;" vertex="1" parent="1">
          <mxGeometry x="-1270.75" y="141" width="60" height="30" as="geometry" />
        </mxCell>
        <mxCell id="PIRWJuVdInkOJhS-QGG8-16" value="SNS" style="text;html=1;align=center;verticalAlign=middle;whiteSpace=wrap;rounded=0;" vertex="1" parent="1">
          <mxGeometry x="-1101" y="140" width="60" height="30" as="geometry" />
        </mxCell>
        <mxCell id="PIRWJuVdInkOJhS-QGG8-17" value="Notificação via e-mail" style="text;html=1;align=center;verticalAlign=middle;whiteSpace=wrap;rounded=0;" vertex="1" parent="1">
          <mxGeometry x="-961" y="140" width="60" height="30" as="geometry" />
        </mxCell>
      </root>
    </mxGraphModel>
  </diagram>
</mxfile>
